<svg xmlns="http://www.w3.org/2000/svg" viewBox="0 0 408 408"><defs><style>.cls-1{fill:#fff;}.cls-2{fill:aqua;}.cls-3{fill:#009ff7;}</style></defs><g id="Capa_2" data-name="Capa 2"><rect class="cls-1" width="408" height="408" rx="203.9998"/><path class="cls-2" d="M2113,1369a135,135,0,1,1-95.46,39.5405A134.1166,134.1166,0,0,1,2113,1369m0-40h0a175,175,0,0,0-175,175v0a175,175,0,0,0,175,175h0a175,175,0,0,0,175-175v0a175,175,0,0,0-175-175Z" transform="translate(-1909 -1300)"/><path class="cls-2" d="M2113,1421a21.0239,21.0239,0,0,1-21-21v-70a21,21,0,0,1,42,0v70A21.0239,21.0239,0,0,1,2113,1421Z" transform="translate(-1909 -1300)"/><path class="cls-3" d="M2113,1313a17.0193,17.0193,0,0,1,17,17v70a17,17,0,0,1-34,0v-70a17.0193,17.0193,0,0,1,17-17m0-8a25,25,0,0,0-25,25v70a25,25,0,0,0,50,0v-70a25,25,0,0,0-25-25Z" transform="translate(-1909 -1300)"/></g><g id="Capa_3" data-name="Capa 3"><path class="cls-3" d="M2026.3965,1454.3223h22.083v127.9326h-22.083Zm11.042,110.8632h90.0654v17.0694h-90.0654Z" transform="translate(-1909 -1300)"/><path class="cls-2" d="M2099.0137,1479.3115H2225v17.167H2099.0137Zm50.4687,10.53h25.05v118.1348h-25.05Z" transform="translate(-1909 -1300)"/></g></svg>